<mxfile host="app.diagrams.net" modified="2020-07-23T12:57:08.880Z" agent="5.0 (Windows NT 10.0; Win64; x64) AppleWebKit/537.36 (KHTML, like Gecko) Chrome/84.0.4147.89 Safari/537.36" etag="tB__UgMVsO0E4s9tEaBZ" version="13.5.1" type="github" pages="2">
  <diagram id="QUwYEdzhh4WQ27PpGiZF" name="Page-1">
    <mxGraphModel dx="868" dy="450" grid="1" gridSize="10" guides="1" tooltips="1" connect="1" arrows="1" fold="1" page="1" pageScale="1" pageWidth="827" pageHeight="1169" math="0" shadow="0">
      <root>
        <mxCell id="0" />
        <mxCell id="1" parent="0" />
      </root>
    </mxGraphModel>
  </diagram>
  <diagram id="wlv48fsyCahMGWaBArmx" name="Page-2">
    <mxGraphModel dx="868" dy="450" grid="1" gridSize="10" guides="1" tooltips="1" connect="1" arrows="1" fold="1" page="1" pageScale="1" pageWidth="827" pageHeight="1169" math="0" shadow="0">
      <root>
        <mxCell id="_x80eorYC4rf50iY-SWX-0" />
        <mxCell id="_x80eorYC4rf50iY-SWX-1" parent="_x80eorYC4rf50iY-SWX-0" />
      </root>
    </mxGraphModel>
  </diagram>
</mxfile>
